<svg fill="none" height="21" viewBox="0 0 68 21" width="68" xmlns="http://www.w3.org/2000/svg"><g fill="#0ad9c6"><path d="m13.3636 0v20.0455h-3.2931v-14.22277l-1.09777 1.38409-2.14773 2.76818-.09546.0955-.14318-.0955-2.14772-2.76818-1.09773-1.43182v14.2705h-3.34091v-20.0455h3.34091l3.38863 4.29545 3.34096-4.29545z"/><path d="m8.30444 10.0705-.09546-.09549z"/><path d="m8.44787 9.97501-.09546.09549h-.04772z"/><path d="m38.209 5.61453-9.127 6.70147 2.1132 2.878 9.127-6.70148z"/><path d="m26.6672 3c-3.864 0-7.0432 3.13028-7.0432 7.0431 0 3.864 3.1303 7.0432 7.0432 7.0432 3.8639 0 7.0431-3.1303 7.0431-7.0432 0-3.86391-3.1792-7.0431-7.0431-7.0431zm0 10.2712c-1.8097 0-3.2281-1.4673-3.2281-3.2281 0-1.80966 1.4673-3.22807 3.2281-3.22807 1.7607 0 3.2281 1.46732 3.2281 3.22807 0 1.7608-1.4674 3.2281-3.2281 3.2281z"/><path d="m43.6393 3c-3.8639 0-7.0431 3.13028-7.0431 7.0431 0 3.864 3.1303 7.0432 7.0431 7.0432 3.864 0 7.0432-3.1303 7.0432-7.0432-.0489-3.86391-3.1792-7.0431-7.0432-7.0431zm0 10.2712c-1.8097 0-3.2281-1.4673-3.2281-3.2281 0-1.80966 1.4673-3.22807 3.2281-3.22807s3.2281 1.46732 3.2281 3.22807c0 1.7608-1.4673 3.2281-3.2281 3.2281z"/><path d="m67.5977.238647v20.045453h-3.3409v-10.40454l-2.8159-2.67273-2.1-2.05227v15.12954h-3.3409v-20.045453h3.2932.0477l3.9136 3.770453 1.0023.95455v-4.725003z"/><path d="m37 3h6v4h-6z"/></g></svg>